# xmcd
#
# Track frame offsets:
#	150
#	14066
#	24523
#	37409
#	53051
#	64790
#	81676
#	101355
#	109154
#	121618
#	136843
#	152360
#
# Disc length: 2556
#
# Revision: 1
# Processed by: cddbd v1.5.1PL0 Copyright (c) Steve Scherf et al.
# Submitted via: ExactAudioCopy v0.95a5
# Normalized: r0:TRMNUM
#
DISCID=9b09fa0c
DTITLE=The Sights - The Sights
DYEAR=2005
DGENRE=Rock and Roll
TTITLE0=The Sights - Circus
TTITLE1=The Sights - Will I Be True
TTITLE2=The Sights - Scratch My Name in Sin
TTITLE3=The Sights - Backseat
TTITLE4=The Sights - Last Chance With Me
TTITLE5=The Sights - Waiting on a Friend
TTITLE6=The Sights - Baby's Knockin' Me Down
TTITLE7=The Sights - I'm Gonna Live The Life
TTITLE8=The Sights - Just Got Robbed
TTITLE9=The Sights - Get Yourself Together
TTITLE10=The Sights - All of the Time
TTITLE11=The Sights - Good Way to Die/Stay With Me (Faces Cover)
EXTD=
EXTT0=
EXTT1=
EXTT2=
EXTT3=
EXTT4=
EXTT5=
EXTT6=
EXTT7=
EXTT8=
EXTT9=
EXTT10=
EXTT11=
PLAYORDER=
